GREETZ: UnDeaD - BadGirl2k9 - virusofsaten - foxyb - WICCYWOLF - lizzymwah1

VISIT http://www.seedboxworld.biz/ for all ur seedbox needs!

RELEASE NAME: The.Last.Exorcism.Cam.Xvid-SDTeam
RELEASED BY: UnDeaD & BadGirl2k9
SIZE: 322 MB

LANGUAGE: English
IMDb: http://www.imdb.com/title/tt1320244/

PLOT: A troubled evangelical minister agrees to let 
his last exorcism be filmed by a documentary crew.

COVER IMAGE: http://bayimg.com/GaPdoAaCa
SCREENS: 
http://i658.photobucket.com/albums/uu309/BadGirl2k9/screens/vlcsnap-2010-09-14-23h00m48s248.png 
http://i658.photobucket.com/albums/uu309/BadGirl2k9/screens/vlcsnap-2010-09-14-23h01m06s180.png 
http://i658.photobucket.com/albums/uu309/BadGirl2k9/screens/vlcsnap-2010-09-14-23h01m13s253.png

General
Format                           : AVI
Format/Info                      : Audio Video Interleave
File size                        : 323 MiB
Duration                         : 1h 18mn
Overall bit rate                 : 572 Kbps
Writing application              : MEncoder SVN-r22963
Writing library                  : MPlayer

Video
ID                               : 0
Format                           : MPEG-4 Visual
Format profile                   : Simple@L3
Format settings, BVOP            : No
Format settings, QPel            : No
Format settings, GMC             : No warppoints
Format settings, Matrix          : Default (H.263)
Codec ID                         : XVID
Codec ID/Hint                    : XviD
Duration                         : 1h 18mn
Bit rate                         : 497 Kbps
Width                            : 512 pixels
Height                           : 240 pixels
Display aspect ratio             : 2.2:1
Frame rate                       : 20.000 fps
Resolution                       : 8 bits
Colorimetry                      : 4:2:0
Scan type                        : Progressive
Bits/(Pixel*Frame)               : 0.202
Stream size                      : 280 MiB (87%)
Writing library                  : XviD 1.1.2 (UTC 2006-11-01)

Audio
ID                               : 1
Format                           : MPEG Audio
Format version                   : Version 1
Format profile                   : Layer 3
Codec ID                         : 55
Codec ID/Hint                    : MP3
Duration                         : 1h 18mn
Bit rate mode                    : Constant
Bit rate                         : 64.0 Kbps
Channel(s)                       : 2 channels
Sampling rate                    : 44.1 KHz
Stream size                      : 36.1 MiB (11%)
Alignment                        : Aligned on interleaves
Interleave, duration             : 26 ms (0.52 video frame)
Interleave, preload duration     : 522 ms

GROUP NOTE: Big thanks to seedboxworld.biz for the seedbox!
